<svg preserveAspectRatio="none" width="100%" height="100%" overflow="visible" style="display: block;" viewBox="0 0 33.2444 33.2444" fill="none" xmlns="http://www.w3.org/2000/svg">
<g id="Frame 28" filter="url(#filter0_i_1_2297)">
<g id="Union">
<path d="M21.5201 20.4014C21.3719 19.9696 21.7943 19.5548 22.2388 19.7031L28.8531 21.8887C29.3334 22.0458 29.3696 22.6959 28.9117 22.9053L26.1275 24.1787L24.816 26.8828C24.6003 27.3273 23.9317 27.2917 23.7701 26.8252L21.5201 20.4014ZM19.6519 16.2803C20.267 16.6029 20.909 16.7988 21.6138 16.7988H23.7789C24.3266 16.7988 24.8382 16.6503 25.359 16.4541V19.8174L22.526 18.8799C22.3688 18.8319 22.2111 18.8057 22.0494 18.8057C21.5825 18.8058 21.1377 19.0278 20.8638 19.3984C20.5856 19.7778 20.5139 20.2451 20.6666 20.6855L22.3824 25.5869C22.2567 25.6 22.1259 25.6094 21.9957 25.6094H11.2633C9.38637 25.6092 7.89998 24.1345 7.89998 22.3203V16.4541C8.38047 16.6242 8.84782 16.7906 9.34627 16.7949L11.5152 16.8037C12.265 16.808 12.9564 16.6378 13.6119 16.2803C14.2675 16.6466 14.9596 16.8037 15.7096 16.8037H17.483C18.2553 16.8037 18.9739 16.6597 19.6519 16.2803ZM23.2447 6.04395C24.8074 6.04395 26.0645 7.19099 26.2262 8.67383L26.6803 12.7949C26.8644 14.4609 25.3375 15.826 23.6627 15.8262H21.6148C20.8829 15.8174 20.2271 15.5385 19.6568 15.085C19.0641 15.5647 18.3811 15.8262 17.6178 15.8262H15.3863C14.7173 15.752 14.1333 15.5171 13.608 15.0811C13.0198 15.565 12.3369 15.8223 11.5826 15.8223H9.60213C7.92734 15.8264 6.40046 14.4565 6.58455 12.7949L7.03377 8.67383C7.19543 7.19535 8.46193 6.04399 10.0201 6.04395H23.2447Z" fill="var(--fill-0, #2C2C33)"/>
<path d="M21.5201 20.4014C21.3719 19.9696 21.7943 19.5548 22.2388 19.7031L28.8531 21.8887C29.3334 22.0458 29.3696 22.6959 28.9117 22.9053L26.1275 24.1787L24.816 26.8828C24.6003 27.3273 23.9317 27.2917 23.7701 26.8252L21.5201 20.4014ZM19.6519 16.2803C20.267 16.6029 20.909 16.7988 21.6138 16.7988H23.7789C24.3266 16.7988 24.8382 16.6503 25.359 16.4541V19.8174L22.526 18.8799C22.3688 18.8319 22.2111 18.8057 22.0494 18.8057C21.5825 18.8058 21.1377 19.0278 20.8638 19.3984C20.5856 19.7778 20.5139 20.2451 20.6666 20.6855L22.3824 25.5869C22.2567 25.6 22.1259 25.6094 21.9957 25.6094H11.2633C9.38637 25.6092 7.89998 24.1345 7.89998 22.3203V16.4541C8.38047 16.6242 8.84782 16.7906 9.34627 16.7949L11.5152 16.8037C12.265 16.808 12.9564 16.6378 13.6119 16.2803C14.2675 16.6466 14.9596 16.8037 15.7096 16.8037H17.483C18.2553 16.8037 18.9739 16.6597 19.6519 16.2803ZM23.2447 6.04395C24.8074 6.04395 26.0645 7.19099 26.2262 8.67383L26.6803 12.7949C26.8644 14.4609 25.3375 15.826 23.6627 15.8262H21.6148C20.8829 15.8174 20.2271 15.5385 19.6568 15.085C19.0641 15.5647 18.3811 15.8262 17.6178 15.8262H15.3863C14.7173 15.752 14.1333 15.5171 13.608 15.0811C13.0198 15.565 12.3369 15.8223 11.5826 15.8223H9.60213C7.92734 15.8264 6.40046 14.4565 6.58455 12.7949L7.03377 8.67383C7.19543 7.19535 8.46193 6.04399 10.0201 6.04395H23.2447Z" fill="url(#paint0_linear_1_2297)"/>
</g>
</g>
<defs>
<filter id="filter0_i_1_2297" x="-1" y="-1" width="34.2444" height="34.2444" filterUnits="userSpaceOnUse" color-interpolation-filters="sRGB">
<feFlood flood-opacity="0" result="BackgroundImageFix"/>
<feBlend mode="normal" in="SourceGraphic" in2="BackgroundImageFix" result="shape"/>
<feColorMatrix in="SourceAlpha" type="matrix" values="0 0 0 0 0 0 0 0 0 0 0 0 0 0 0 0 0 0 127 0" result="hardAlpha"/>
<feOffset dx="-1" dy="-1"/>
<feGaussianBlur stdDeviation="2"/>
<feComposite in2="hardAlpha" operator="arithmetic" k2="-1" k3="1"/>
<feColorMatrix type="matrix" values="0 0 0 0 0 0 0 0 0 0 0 0 0 0 0 0 0 0 0.2 0"/>
<feBlend mode="normal" in2="shape" result="effect1_innerShadow_1_2297"/>
</filter>
<linearGradient id="paint0_linear_1_2297" x1="3.88715" y1="-10.1679" x2="25.1373" y2="30.3025" gradientUnits="userSpaceOnUse">
<stop stop-color="white"/>
<stop offset="1" stop-color="white" stop-opacity="0"/>
</linearGradient>
</defs>
</svg>
