<svg preserveAspectRatio="none" width="100%" height="100%" overflow="visible" style="display: block;" viewBox="0 0 141.566 15.1898" fill="none" xmlns="http://www.w3.org/2000/svg">
<g id="Storefront Skills">
<path id="Vector" d="M136.975 15.1892C134.077 15.1892 132.11 13.8564 132.025 11.5081H134.268C134.352 12.6082 135.346 13.4121 136.975 13.4121C138.435 13.4121 139.324 12.8833 139.324 11.9524C139.324 10.9581 138.351 10.7677 136.785 10.5773C134.246 10.3023 132.237 9.79455 132.237 7.48859C132.237 5.4365 134.077 4.1037 136.679 4.1037C139.345 4.1037 141.228 5.33073 141.376 7.48859H139.133C139.006 6.55775 138.139 5.90193 136.7 5.90193C135.304 5.90193 134.479 6.36735 134.479 7.25588C134.479 8.27135 135.452 8.46175 137.018 8.65215C139.556 8.94833 141.566 9.4349 141.566 11.8043C141.566 13.8776 139.599 15.1892 136.975 15.1892Z" fill="var(--fill-0, #3A3A3A)"/>
<path id="Vector_2" d="M128.52 15.0626V0.253744H130.826V15.0626H128.52Z" fill="var(--fill-0, #3A3A3A)"/>
<path id="Vector_3" d="M124.485 15.0626V0.253744H126.791V15.0626H124.485Z" fill="var(--fill-0, #3A3A3A)"/>
<path id="Vector_4" d="M120.451 15.0628V4.23111H122.757V15.0628H120.451ZM121.593 2.64444C120.853 2.64444 120.261 2.07324 120.261 1.31164C120.261 0.550044 120.853 0 121.593 0C122.355 0 122.926 0.550044 122.926 1.31164C122.926 2.07324 122.355 2.64444 121.593 2.64444Z" fill="var(--fill-0, #3A3A3A)"/>
<path id="Vector_5" d="M109.764 15.0626V0.253744H112.07V9.47757L116.957 4.23099H119.644L115.561 8.61019L119.898 15.0626H117.211L113.974 10.3238L112.07 12.3124V15.0626H109.764Z" fill="var(--fill-0, #3A3A3A)"/>
<path id="Vector_6" d="M102.965 15.1898C99.2842 15.1898 97.0628 13.1589 96.9782 10.2183H99.4323C99.5592 11.9742 100.913 13.1377 102.965 13.1377C104.763 13.1377 106.012 12.3761 106.012 10.9587C106.012 9.39319 104.488 9.03355 102.352 8.65275C99.6861 8.18732 97.3379 7.38341 97.3379 4.46394C97.3379 1.88297 99.4534 0.127056 102.606 0.127056C105.99 0.127056 108.106 1.96759 108.212 4.69666H105.779C105.589 3.19461 104.425 2.17914 102.584 2.17914C100.913 2.17914 99.7708 2.87728 99.7708 4.27354C99.7708 5.79674 101.294 6.11408 103.41 6.49488C106.075 6.98146 108.445 7.78537 108.445 10.7048C108.445 13.3493 106.223 15.1898 102.965 15.1898Z" fill="var(--fill-0, #3A3A3A)"/>
<path id="Vector_7" d="M89.712 15.062C87.6387 15.062 86.7714 14.0888 86.7714 12.1213V6.2401H84.8885V4.23032H86.7714V1.20508H89.0561V4.23032H91.8487V6.2401H89.0561V11.8886C89.0561 12.7349 89.3735 13.0522 90.2409 13.0522H91.8487V15.062H89.712Z" fill="var(--fill-0, #3A3A3A)"/>
<path id="Vector_8" d="M74.289 15.0623V4.23064H76.2988L76.5315 5.64806C77.1873 4.82299 78.2451 4.1037 80.001 4.1037C82.4128 4.1037 84.3591 5.41535 84.3591 9.03295V15.0623H82.0743V9.20219C82.0743 7.1501 81.1857 6.07117 79.4933 6.07117C77.5681 6.07117 76.595 7.27704 76.595 9.35028V15.0623H74.289Z" fill="var(--fill-0, #3A3A3A)"/>
<path id="Vector_9" d="M67.5014 15.1892C64.2011 15.1892 61.9798 12.9679 61.9798 9.64646C61.9798 6.34619 64.2011 4.1037 67.5014 4.1037C70.8016 4.1037 73.023 6.34619 73.023 9.64646C73.023 12.9679 70.8016 15.1892 67.5014 15.1892ZM67.5014 13.2429C69.4265 13.2429 70.6959 11.7409 70.6959 9.64646C70.6959 7.55206 69.4265 6.05001 67.5014 6.05001C65.5762 6.05001 64.328 7.55206 64.328 9.64646C64.328 11.7409 65.5762 13.2429 67.5014 13.2429Z" fill="var(--fill-0, #3A3A3A)"/>
<path id="Vector_10" d="M55.9314 15.062V4.23039H57.9412L58.1739 5.85937C58.7239 4.97084 59.5702 4.23039 61.3895 4.23039H61.9184V6.3671H60.9241C58.872 6.3671 58.2374 7.95377 58.2374 9.62506V15.062H55.9314Z" fill="var(--fill-0, #3A3A3A)"/>
<path id="Vector_11" d="M49.9944 15.0626V6.24077H48.1116V4.23099H49.9944V3.21552C49.9944 1.26921 50.9253 0.253744 53.0197 0.253744H55.1775V2.26352H53.3158C52.5542 2.26352 52.2581 2.58086 52.2581 3.3213V4.23099H55.1775V6.24077H52.2792V15.0626H49.9944Z" fill="var(--fill-0, #3A3A3A)"/>
<path id="Vector_12" d="M42.9611 15.1892C39.555 15.1892 37.4183 12.989 37.4183 9.66761C37.4183 6.32504 39.555 4.1037 42.7495 4.1037C45.8594 4.1037 47.9961 6.11348 47.9961 9.37144V10.1542H39.8089V10.2811C39.8089 12.1005 41.0359 13.3275 42.8341 13.3275C44.2516 13.3275 45.2882 12.6294 45.6055 11.4447H47.8903C47.5095 13.5602 45.6478 15.1892 42.9611 15.1892ZM39.8724 8.46175H45.669C45.4786 6.85393 44.3785 5.94424 42.7707 5.94424C41.3321 5.94424 40.0628 6.87508 39.8724 8.46175Z" fill="var(--fill-0, #3A3A3A)"/>
<path id="Vector_13" d="M31.3702 15.062V4.23039H33.38L33.6127 5.85937C34.1627 4.97084 35.0089 4.23039 36.8283 4.23039H37.3572V6.3671H36.3629C34.3108 6.3671 33.6761 7.95377 33.6761 9.62506V15.062H31.3702Z" fill="var(--fill-0, #3A3A3A)"/>
<path id="Vector_14" d="M24.5828 15.1892C21.2825 15.1892 19.0612 12.9679 19.0612 9.64646C19.0612 6.34619 21.2825 4.1037 24.5828 4.1037C27.883 4.1037 30.1044 6.34619 30.1044 9.64646C30.1044 12.9679 27.883 15.1892 24.5828 15.1892ZM24.5828 13.2429C26.5079 13.2429 27.7773 11.7409 27.7773 9.64646C27.7773 7.55206 26.5079 6.05001 24.5828 6.05001C22.6576 6.05001 21.4094 7.55206 21.4094 9.64646C21.4094 11.7409 22.6576 13.2429 24.5828 13.2429Z" fill="var(--fill-0, #3A3A3A)"/>
<path id="Vector_15" d="M16.5303 15.062C14.4571 15.062 13.5897 14.0888 13.5897 12.1213V6.2401H11.7069V4.23032H13.5897V1.20508H15.8745V4.23032H18.667V6.2401H15.8745V11.8886C15.8745 12.7349 16.1918 13.0522 17.0592 13.0522H18.667V15.062H16.5303Z" fill="var(--fill-0, #3A3A3A)"/>
<path id="Vector_16" d="M5.98702 15.1898C2.30595 15.1898 0.0846221 13.1589 0 10.2183H2.45404C2.58098 11.9742 3.93493 13.1377 5.98702 13.1377C7.78524 13.1377 9.03341 12.3761 9.03341 10.9587C9.03341 9.39319 7.51021 9.03355 5.37351 8.65275C2.70791 8.18732 0.359644 7.38341 0.359644 4.46394C0.359644 1.88297 2.4752 0.127056 5.62737 0.127056C9.01226 0.127056 11.1278 1.96759 11.2336 4.69666H8.8007C8.6103 3.19461 7.44675 2.17914 5.60622 2.17914C3.93493 2.17914 2.79253 2.87728 2.79253 4.27354C2.79253 5.79674 4.31573 6.11408 6.43128 6.49488C9.09688 6.98146 11.4663 7.78537 11.4663 10.7048C11.4663 13.3493 9.24497 15.1898 5.98702 15.1898Z" fill="var(--fill-0, #3A3A3A)"/>
</g>
</svg>
