<svg preserveAspectRatio="none" width="100%" height="100%" overflow="visible" style="display: block;" viewBox="0 0 37 34" fill="none" xmlns="http://www.w3.org/2000/svg">
<g id="Google Ads" clip-path="url(#clip0_1_2019)">
<path id="Vector" d="M12.6157 4.2837C12.9723 3.34009 13.4627 2.47137 14.1908 1.7674C17.1032 -1.09339 21.9177 -0.374445 23.894 3.22026C25.3799 5.94626 26.955 8.61233 28.4855 11.3084C31.0414 15.7868 33.6269 20.2652 36.153 24.7586C38.2779 28.5181 35.9747 33.2661 31.7546 33.9101C29.1691 34.2996 26.747 33.1013 25.4096 30.7648C23.1659 26.8256 20.9072 22.8863 18.6635 18.9621C18.6189 18.8722 18.5594 18.7974 18.5 18.7225C18.2622 18.5278 18.1582 18.2432 18.0096 17.9885C17.0141 16.2211 15.9888 14.4687 14.9932 12.7163C14.3542 11.578 13.6856 10.4546 13.0466 9.3163C12.4671 8.2978 12.1996 7.18943 12.2293 6.02115C12.2739 5.42203 12.3482 4.82291 12.6157 4.2837Z" fill="var(--fill-0, #B5B5B5)"/>
<path id="Vector_2" d="M12.6157 4.28372C12.482 4.82292 12.3631 5.36213 12.3334 5.93129C12.2888 7.18944 12.6009 8.35772 13.225 9.45112C14.8594 12.282 16.494 15.1278 18.1137 17.9736C18.2622 18.2282 18.3811 18.4828 18.5297 18.7225C17.6382 20.2802 16.7466 21.8229 15.8402 23.3806C14.592 25.5524 13.3438 27.7392 12.0808 29.911C12.0213 29.911 12.0065 29.8811 11.9916 29.8361C11.9768 29.7163 12.0213 29.6115 12.0511 29.4916C12.6603 27.2449 12.1551 25.2529 10.6246 23.5454C9.68841 22.5119 8.49966 21.9278 7.13259 21.733C5.34946 21.4784 3.77436 21.9427 2.36271 23.0661C2.1101 23.2608 1.94665 23.5454 1.64946 23.6952C1.59002 23.6952 1.5603 23.6652 1.54544 23.6203C2.25869 22.3771 2.95709 21.1339 3.67034 19.8908C6.61251 14.7383 9.55468 9.58592 12.5117 4.44847C12.5414 4.38856 12.586 4.34363 12.6157 4.28372Z" fill="var(--fill-0, #E6E6E6)"/>
<path id="Vector_3" d="M1.60483 23.6652C1.88716 23.4106 2.15463 23.141 2.45182 22.9013C6.06267 20.0255 11.4864 22.1075 12.2739 26.6608C12.4671 27.7542 12.3631 28.8026 12.0362 29.8511C12.0213 29.941 12.0064 30.0159 11.9767 30.1057C11.843 30.3454 11.7241 30.6 11.5755 30.8396C10.253 33.0414 8.30644 34.1348 5.75062 33.97C2.82331 33.7603 0.5201 31.5436 0.118895 28.6079C-0.0742779 27.185 0.208051 25.852 0.936164 24.6238C1.08476 24.3542 1.26307 24.1145 1.42653 23.8449C1.50082 23.785 1.4711 23.6652 1.60483 23.6652Z" fill="var(--fill-0, #868686)"/>
<path id="Vector_4" d="M1.60483 23.6652C1.5454 23.7251 1.5454 23.83 1.44138 23.8449C1.42652 23.7401 1.48596 23.6802 1.5454 23.6053L1.60483 23.6652Z" fill="var(--fill-0, #FAFAFA)"/>
<path id="Vector_5" d="M11.9768 30.1057C11.9173 30.0009 11.9768 29.926 12.0362 29.8511C12.051 29.8661 12.0808 29.896 12.0956 29.911L11.9768 30.1057Z" fill="var(--fill-0, #9A9A9A)"/>
</g>
<defs>
<clipPath id="clip0_1_2019">
<rect width="37" height="34" fill="white"/>
</clipPath>
</defs>
</svg>
