<svg preserveAspectRatio="none" width="100%" height="100%" overflow="visible" style="display: block;" viewBox="0 0 25.6667 27.9949" fill="none" xmlns="http://www.w3.org/2000/svg">
<g id="Group 10">
<path id="Vector" d="M11.92 22.2561L0.755637 11.7507C0.465007 11.4778 0 11.691 0 12.0918V26.7585C0 27.4406 0.539741 27.9949 1.20404 27.9949H24.4627C25.127 27.9949 25.6667 27.4406 25.6667 26.7585V12.0918C25.6667 11.691 25.2017 11.4778 24.9111 11.7507L13.7468 22.2561C13.232 22.7422 12.4389 22.7422 11.9241 22.2561H11.92Z" fill="#303030"/>
<path id="Vector_2" d="M12.5126 21.2018L0.737971 10.0544C0.420189 9.75204 0.625075 9.20353 1.05575 9.20353H24.6093C25.04 9.20353 25.249 9.75204 24.9271 10.0544L13.1524 21.1974C12.9726 21.3702 12.6924 21.3702 12.5126 21.1974V21.2018Z" fill="#303030"/>
<g id="Group">
<path id="Vector_3" d="M6.41099 5.88691L9.3419 2.67306L13.6245 6.3324L19.0489 1.32297" stroke="#303030" stroke-width="2" stroke-linecap="round" stroke-linejoin="round"/>
<path id="Vector_4" d="M16.3411 1.23638L19.0226 1L19.2501 3.78656" stroke="#303030" stroke-width="2" stroke-linecap="round" stroke-linejoin="round"/>
</g>
</g>
</svg>
