<svg preserveAspectRatio="none" width="100%" height="100%" overflow="visible" style="display: block;" viewBox="0 0 24 23" fill="none" xmlns="http://www.w3.org/2000/svg">
<g id="enYGiI">
<path id="Vector" d="M23.9994 2.21568V2.91458C23.7429 4.27237 22.6347 5.26446 21.3092 5.08254L16.9244 14.4233C17.7749 15.3947 17.8272 16.8619 17.0148 17.859C16.2024 18.8561 14.8353 19.0505 13.8221 18.2803C12.8313 17.5271 12.5055 16.133 13.1054 14.9584L9.70551 10.8863C9.26527 11.0544 8.85143 11.1119 8.37362 11.0276L4.20948 18.7973C4.84989 19.5894 4.97434 20.6546 4.56227 21.5504C4.13904 22.4712 3.27088 23.0289 2.32816 22.9988C1.41832 22.9701 0.592422 22.3806 0.206767 21.4635C-0.169497 20.569 -0.020987 19.5762 0.560725 18.8211C1.09959 18.1216 1.96071 17.7652 2.83063 17.9346L6.99888 10.1674C6.37138 9.37783 6.23227 8.31198 6.64786 7.41054C7.25364 6.09588 8.73051 5.58265 9.91683 6.25529C11.0955 6.92356 11.5651 8.46389 10.8971 9.74228L14.3005 13.8188C14.6967 13.6769 15.0566 13.6062 15.4956 13.6587L19.8787 4.32363C19.1591 3.48845 18.9771 2.26757 19.5383 1.26548C20.0589 0.335284 21.0762 -0.200455 22.1645 0.0702273C23.0937 0.300901 23.8174 1.15733 24 2.21631L23.9994 2.21568Z" fill="var(--fill-0, #303030)"/>
</g>
</svg>
