<svg preserveAspectRatio="none" width="100%" height="100%" overflow="visible" style="display: block;" viewBox="0 0 28 28" fill="none" xmlns="http://www.w3.org/2000/svg">
<g id="Frame 2147231263" clip-path="url(#clip0_1_2260)">
<g id="Layer_1">
</g>
<path id="Vector" d="M14.81 3H2.19003C0.978601 3 0 3.97725 0 5.18702V23.813C0 25.0191 0.978601 26 2.19003 26H14.81C16.0178 26 17 25.0227 17 23.813V5.18702C17 3.98089 16.0214 3 14.81 3ZM2.06634 21.6478C2.06634 21.5024 2.17548 21.3862 2.30644 21.3862H11.0229C11.1575 21.3862 11.263 21.5024 11.263 21.6478V22.3634C11.263 22.5088 11.1539 22.625 11.0229 22.625H2.30644C2.17184 22.625 2.06634 22.5088 2.06634 22.3634V21.6478ZM13.6458 19.8022C13.6458 19.9657 13.5258 20.0965 13.3766 20.0965H2.33554C2.18639 20.0965 2.06634 19.9657 2.06634 19.8022V19.1483C2.06634 18.9848 2.18639 18.8541 2.33554 18.8541H13.3766C13.5258 18.8541 13.6458 18.9848 13.6458 19.1483V19.8022ZM14.9337 15.0504C14.9337 15.7406 14.4389 16.3001 13.8241 16.3001H3.17227C2.5611 16.3001 2.0627 15.7406 2.0627 15.0504V6.19333C2.0627 5.50308 2.55746 4.94361 3.17227 4.94361H13.8205C14.4316 4.94361 14.93 5.50308 14.93 6.19333V15.0504H14.9337Z" fill="var(--fill-0, #303030)"/>
</g>
<defs>
<clipPath id="clip0_1_2260">
<rect width="28" height="28" fill="white"/>
</clipPath>
</defs>
</svg>
