<svg preserveAspectRatio="none" width="100%" height="100%" overflow="visible" style="display: block;" viewBox="0 0 32 32" fill="none" xmlns="http://www.w3.org/2000/svg">
<g id="Layer_1">
<path id="Vector" d="M7.68141 17H2.31859C1.59035 17 1 17.5549 1 18.2394V26.7606C1 27.4451 1.59035 28 2.31859 28H7.68141C8.40965 28 9 27.4451 9 26.7606V18.2394C9 17.5549 8.40965 17 7.68141 17Z" fill="#333333"/>
<path id="Vector_2" d="M17.4076 11H12.5924C11.7129 11 11 11.7071 11 12.5793V26.4207C11 27.2929 11.7129 28 12.5924 28H17.4076C18.2871 28 19 27.2929 19 26.4207V12.5793C19 11.7071 18.2871 11 17.4076 11Z" fill="#333333"/>
<path id="Vector_3" d="M27.1211 4H22.8789C21.8412 4 21 4.8482 21 5.89451V26.1055C21 27.1518 21.8412 28 22.8789 28H27.1211C28.1588 28 29 27.1518 29 26.1055V5.89451C29 4.8482 28.1588 4 27.1211 4Z" fill="#333333"/>
</g>
</svg>
