<svg preserveAspectRatio="none" width="100%" height="100%" overflow="visible" style="display: block;" viewBox="0 0 31.9957 24.0033" fill="none" xmlns="http://www.w3.org/2000/svg">
<g id="Group">
<path id="Vector" d="M2.80668 20.1628L2.79381 12.2535C2.79381 11.9715 3.07699 11.7398 3.34409 11.8305L11.6241 14.5799C12.0778 14.7579 12.6088 14.637 12.8694 14.1972L14.974 10.6588V23.53C14.9708 23.6576 14.8936 23.8389 14.8292 23.8993C14.7552 23.9731 14.5331 24.0302 14.4012 23.9899L3.1317 20.5422C3.01585 20.5086 2.80668 20.3374 2.80346 20.1628H2.80668Z" fill="#333333"/>
<path id="Vector_2" d="M29.2138 12.2501L29.2041 20.0487C29.2041 20.2937 29.0657 20.4885 28.8372 20.5556L17.6289 23.9832C17.4905 24.0235 17.2588 23.9765 17.1816 23.9026C17.1043 23.8288 17.0368 23.6173 17.0368 23.4528V10.6588L19.1156 14.1637C19.373 14.5967 19.8622 14.7512 20.332 14.5967L28.6699 11.8305C28.908 11.7499 29.2138 11.9379 29.2138 12.2501Z" fill="#333333"/>
<path id="Vector_3" d="M11.2829 12.2031L0.338439 8.55728C0.106741 8.49014 -0.0927761 8.17457 0.0455988 7.93286L2.23707 4.19303L14.2918 7.60386L11.7463 11.9849C11.6627 12.1259 11.5146 12.1897 11.2797 12.2065L11.2829 12.2031Z" fill="#333333"/>
<path id="Vector_4" d="M20.8018 12.183C20.5637 12.2132 20.3706 12.1595 20.2741 11.995L17.719 7.60386L29.7705 4.19303L31.9233 7.85564C32.081 8.12421 31.9716 8.43307 31.6852 8.55392L20.7986 12.183H20.8018Z" fill="#333333"/>
<path id="Vector_5" d="M26.2307 2.92405L15.9941 5.81788L5.76082 2.92069L15.9748 0L26.2307 2.92405Z" fill="#333333"/>
</g>
</svg>
