<svg preserveAspectRatio="none" width="100%" height="100%" overflow="visible" style="display: block;" viewBox="0 0 29.0004 27.8586" fill="none" xmlns="http://www.w3.org/2000/svg">
<g id="Group 237">
<g id="Group">
<path id="Vector" d="M15.9322 3.21606e-05H1.40952C0.631123 3.21606e-05 0.000108719 0.631047 0.000108719 1.40944V10.686C0.000108719 11.4644 0.631123 12.0954 1.40952 12.0954H15.9322C16.7106 12.0954 17.3416 11.4644 17.3416 10.686V1.40944C17.3416 0.631047 16.7106 3.21606e-05 15.9322 3.21606e-05Z" fill="var(--fill-0, #333333)"/>
<path id="Vector_2" d="M27.9284 0H20.1313C19.5418 0 19.0639 0.477873 19.0639 1.06736V11.028C19.0639 11.6175 19.5418 12.0954 20.1313 12.0954H27.9284C28.5179 12.0954 28.9957 11.6175 28.9957 11.028V1.06736C28.9957 0.477873 28.5179 0 27.9284 0Z" fill="var(--fill-0, #333333)"/>
<path id="Vector_3" d="M1.06736 25.596H8.86445C9.45393 25.596 9.93181 25.1181 9.93181 24.5286L9.93181 14.568C9.93181 13.9785 9.45393 13.5006 8.86445 13.5006L1.06736 13.5006C0.477874 13.5006 0 13.9785 0 14.568L0 24.5286C0 25.1181 0.477874 25.596 1.06736 25.596Z" fill="var(--fill-0, #333333)"/>
</g>
<path id="Vector_4" d="M27.5869 13.4966H13.0683C12.2894 13.4966 11.6589 14.1271 11.6589 14.906V24.1825C11.6589 24.9614 12.2894 25.5919 13.0683 25.5919H17.9271C18.1785 25.5919 18.265 25.2664 18.0548 25.1345C17.2801 24.6523 16.6166 23.9806 16.1468 23.1646C15.3885 21.85 15.1866 20.3211 15.5781 18.854C15.9696 17.391 16.9092 16.1629 18.2238 15.4046C19.0851 14.906 20.0659 14.6422 21.0591 14.6422C23.0825 14.6422 24.97 15.7302 25.9797 17.4816C27.0429 19.3238 26.9564 21.5986 25.8643 23.3459C25.6994 23.6138 25.6953 23.9476 25.8519 24.2237L26.3918 25.1592C26.5443 25.4271 26.8286 25.5878 27.1377 25.5878H27.591C28.3699 25.5878 29.0004 24.9573 29.0004 24.1784V14.9018C29.0004 14.123 28.3699 13.4924 27.591 13.4924L27.5869 13.4966Z" fill="var(--fill-0, #333333)"/>
<path id="Vector_5" d="M25.7733 26.5728L24.059 23.6015C25.5632 22.2251 25.967 19.9461 24.9079 18.1081C23.6798 15.9858 20.964 15.2563 18.8417 16.4844C16.7193 17.7125 15.9899 20.4283 17.218 22.5506C18.2812 24.3886 20.4571 25.1799 22.3982 24.5659L24.1125 27.5372C24.2897 27.8462 24.6854 27.9493 24.9944 27.7721L25.5426 27.4547C25.8516 27.2775 25.9547 26.8819 25.7775 26.5728H25.7733Z" fill="var(--fill-0, #333333)"/>
</g>
</svg>
