<svg preserveAspectRatio="none" width="100%" height="100%" overflow="visible" style="display: block;" viewBox="0 0 24.2053 18.4966" fill="none" xmlns="http://www.w3.org/2000/svg">
<g id="Group 261">
<path id="Vector" d="M22.6463 17.7552V18.4966H22.1026V17.7393C21.2091 17.6085 20.6349 16.9424 20.6425 16.1613H21.6007C21.6007 16.5855 21.9277 16.9345 22.4714 16.9345C22.9657 16.9345 23.2433 16.6292 23.2433 16.2525C23.2433 15.963 23.0532 15.7212 22.5741 15.5864L21.9619 15.404C20.8707 15.1146 20.6767 14.4326 20.6767 13.9925C20.6767 13.1876 21.3003 12.6048 22.1026 12.4898V11.7682H22.6463V12.4898C23.4904 12.5889 24.0646 13.2035 24.057 14.052H23.0912C23.0988 13.6277 22.8136 13.3303 22.3802 13.3303C21.9467 13.3303 21.6463 13.6039 21.6463 13.9687C21.6463 14.1194 21.6843 14.4088 22.2205 14.5595L22.8022 14.7181C23.6083 14.9441 24.2052 15.4 24.2052 16.2049C24.2052 17.0851 23.5284 17.6838 22.6425 17.7592L22.6463 17.7552Z" fill="var(--fill-0, #303030)"/>
<path id="Vector_2" d="M11.46 11.0107C11.6235 11.1693 11.8783 11.1693 12.0418 11.0107L22.749 0.781187C23.0379 0.503642 22.8516 9.76324e-05 22.46 9.76324e-05H1.04182C0.650188 9.76324e-05 0.460074 0.503642 0.752849 0.781187L11.46 11.0107ZM22.8098 1.93498L12.5855 11.7045C12.114 12.1565 11.3878 12.1565 10.9163 11.7045L0.692013 1.93498C0.425854 1.68122 0 1.8755 0 2.25217V15.8915C0 16.5259 0.494295 17.0374 1.10266 17.0374H19.19C19.0418 16.6012 18.9543 16.1334 18.9543 15.6457V14.7615C18.9543 12.4698 20.7376 10.6102 22.9353 10.6102H23.5018V2.25217C23.5018 1.87947 23.076 1.68122 22.8098 1.93498Z" fill="var(--fill-0, #303030)"/>
</g>
</svg>
