<svg preserveAspectRatio="none" width="100%" height="100%" overflow="visible" style="display: block;" viewBox="0 0 32 32" fill="none" xmlns="http://www.w3.org/2000/svg">
<g id="Layer_1">
<path id="Vector" d="M27.9052 6.35314L26.039 5.28831C24.9909 4.69247 23.6468 5.04613 23.0429 6.0802L13.5013 22.3832C13.3844 22.5831 13.3532 22.8176 13.4117 23.0367L14.3623 26.581C14.4403 26.877 14.7519 27.0538 15.0519 26.9731L18.6364 26.0121C18.8584 25.9505 19.0494 25.8083 19.1662 25.6084L28.7078 9.30543C29.3117 8.27136 28.9532 6.94513 27.9052 6.34929V6.35314Z" fill="var(--fill-0, #303030)"/>
<path id="Vector_2" d="M11.8701 25.4393H1.51039C1.22851 25.4393 1 25.6647 1 25.9429V26.4964C1 26.7745 1.22851 27 1.51039 27H11.8701C12.152 27 12.3805 26.7745 12.3805 26.4964V25.9429C12.3805 25.6647 12.152 25.4393 11.8701 25.4393Z" fill="var(--fill-0, #303030)"/>
</g>
</svg>
