<svg preserveAspectRatio="none" width="100%" height="100%" overflow="visible" style="display: block;" viewBox="0 0 25.6667 26.9779" fill="none" xmlns="http://www.w3.org/2000/svg">
<g id="Group 10">
<path id="Vector" d="M11.92 21.4553L0.755637 11.3457C0.465007 11.0831 0 11.2883 0 11.6739V25.788C0 26.4445 0.539741 26.9778 1.20404 26.9778H24.4627C25.127 26.9778 25.6667 26.4445 25.6667 25.788V11.6739C25.6667 11.2883 25.2017 11.0831 24.9111 11.3457L13.7468 21.4553C13.232 21.923 12.4389 21.923 11.9241 21.4553H11.92Z" fill="var(--fill-0, #303030)"/>
<path id="Vector_2" d="M12.5126 20.4407L0.737971 9.71328C0.420189 9.42234 0.625075 8.89449 1.05575 8.89449H24.6093C25.04 8.89449 25.249 9.42234 24.9271 9.71328L13.1524 20.4365C12.9726 20.6028 12.6924 20.6028 12.5126 20.4365V20.4407Z" fill="var(--fill-0, #303030)"/>
<g id="Group">
<path id="Vector_3" d="M6.41099 5.70265L9.3419 2.60989L13.6245 6.13135L19.0489 1.31067" stroke="var(--stroke-0, #303030)" stroke-width="2" stroke-linecap="round" stroke-linejoin="round"/>
<path id="Vector_4" d="M16.3411 1.22753L19.0226 1.00006L19.2501 3.68162" stroke="var(--stroke-0, #303030)" stroke-width="2" stroke-linecap="round" stroke-linejoin="round"/>
</g>
</g>
</svg>
