<svg preserveAspectRatio="none" width="100%" height="100%" overflow="visible" style="display: block;" viewBox="0 0 24.1555 28.4441" fill="none" xmlns="http://www.w3.org/2000/svg">
<g id="Group 236">
<g id="Group">
<path id="Vector" d="M5.7806 5.43805C5.84309 5.37556 5.85481 5.30526 5.85481 5.25839C5.85481 5.20761 5.84309 5.13731 5.7767 5.07482C5.7103 5.01232 5.6439 5.00061 5.59703 5.00061C5.55016 5.00061 5.47986 5.01232 5.41737 5.07482C5.35487 5.13731 5.33925 5.21152 5.33925 5.25839C5.33925 5.30526 5.35097 5.37556 5.41346 5.43805C5.47595 5.50054 5.54626 5.51617 5.59703 5.51617C5.64781 5.51617 5.71811 5.50445 5.7806 5.44196V5.43805Z" fill="var(--fill-0, #333333)"/>
<path id="Vector_2" d="M22.142 18.5261L16.588 24.0801C16.0295 24.6347 15.2913 24.9433 14.5062 24.9433C13.7212 24.9433 12.9791 24.6386 12.4245 24.0801L0.136972 11.7965L0.109631 11.8747C-0.0973734 12.441 -0.0075411 13.0776 0.347882 13.5658L10.6005 27.6929C11.1902 28.5053 12.3307 28.6889 13.1431 28.0952L22.1107 21.5843C22.9231 20.9946 23.1067 19.8541 22.513 19.0417L22.1381 18.5261H22.142Z" fill="var(--fill-0, #333333)"/>
</g>
<path id="Vector_3" d="M1.63676 2.7352L0.371294 9.30858C0.258027 9.90226 0.445503 10.5116 0.87123 10.9412L13.2134 23.2834C13.9243 23.9942 15.0764 23.9942 15.7873 23.2834L23.6222 15.4484C24.3331 14.7376 24.3331 13.5854 23.6222 12.8745L11.284 0.53236C10.8582 0.106634 10.245 -0.0808425 9.65136 0.0324242L3.08188 1.29398C2.35151 1.43459 1.77736 2.00483 1.63676 2.73911V2.7352ZM6.57753 6.23085C6.03854 6.76984 5.16365 6.76984 4.62075 6.23085C4.07785 5.69186 4.08176 4.81697 4.62075 4.27798C5.15974 3.73898 6.03463 3.73898 6.56972 4.27798C7.10481 4.81697 7.10871 5.69186 6.56972 6.23085H6.57753Z" fill="var(--fill-0, #333333)"/>
</g>
</svg>
