<svg preserveAspectRatio="xMidYMid meet" width="100%" height="100%" overflow="visible" style="display: block;" viewBox="0 0 101 30.0093" fill="none" xmlns="http://www.w3.org/2000/svg">
<g id="Group">
<path id="Vector" d="M57.3492 6C57.8881 6 58.4096 5.7907 58.7921 5.42442C59.1745 5.05814 59.4005 4.53488 59.4179 4.01163C59.4179 3.47093 59.1919 2.94767 58.8095 2.56395C58.427 2.18023 57.9055 1.95349 57.3666 1.95349C56.8277 1.97093 56.3236 2.18023 55.9411 2.5814C55.5587 2.96512 55.3501 3.48837 55.3675 4.01163C55.3675 4.53488 55.5761 5.0407 55.9585 5.42442C56.3236 5.77326 56.8277 5.98256 57.3492 6ZM71.3606 7.9186H76.3324V8.31977C76.0542 8.37209 75.7935 8.4593 75.5501 8.59884C75.0981 8.80814 74.1942 9.83721 73.4814 11.564C72.2993 14.5465 71.0651 18.0872 69.7613 22.1337L69.2745 23.6686C69.0659 24.3663 68.8747 24.8198 68.7878 25.0814C68.7009 25.3605 68.5792 25.7791 68.3706 26.2849C68.2489 26.6686 68.0924 27.0523 67.9012 27.4012C67.6578 27.8547 67.2059 28.7791 66.8408 29.0581C66.2671 29.5465 65.4153 30.0872 64.3549 30C62.2862 30 60.7391 28.4651 60.7217 26.6512C60.7217 25.4128 61.504 24.593 62.6861 24.593C63.5379 24.593 64.2854 25.0465 64.2854 26.0058C64.2854 26.7035 63.59 27.4186 63.59 27.7849C63.59 28.7267 64.1289 29.1628 65.1893 29.1628C66.0411 29.1628 66.7365 28.6221 67.258 27.5407C67.9534 26.3023 68.0229 24.9419 67.4318 23.4244L63.0685 11.9128C62.0602 9.26163 61.3127 8.38953 60.374 8.28488V7.88372H67.258V8.28488C66.441 8.37209 66.0238 8.86046 66.0238 9.73256C66.0238 10.3605 66.2671 11.3372 66.7191 12.5756L67.5361 14.8081C68.4749 17.2326 69.2398 19.343 69.6222 20.6686C70.5088 17.9128 71.3258 15.5058 72.1081 13.3953C72.6818 11.8256 72.9599 10.7093 72.9599 10.0465C72.9599 8.86046 72.3167 8.31977 71.3606 8.31977V7.9186ZM23.5029 22.6221C22.6164 22.4651 21.8688 21.6802 21.8688 20.0233V0L16.8623 1.0814V1.5C17.7141 1.41279 18.5659 2.16279 18.5659 3.76744V20.0233C18.5659 21.593 17.7141 22.5 16.8623 22.6221C16.7754 22.6395 16.7059 22.6395 16.6189 22.657C16.1843 22.6919 15.7497 22.6047 15.3499 22.4302C14.6719 22.1337 14.1157 21.6105 13.6463 20.843L11.3343 17.1628C10.8475 16.3779 10.1174 15.7849 9.26558 15.4535C8.41377 15.1221 7.47504 15.0698 6.58847 15.314L9.19604 12.436C11.1604 10.2558 12.9857 8.87791 14.7067 8.30233V7.90116H8.97005V8.30233C10.4477 8.87791 10.3608 10.1512 8.65714 12.1395L5.00654 16.3953V0L0 1.0814V1.5C0.851807 1.5 1.70361 2.33721 1.70361 3.81977V20.0058C1.70361 21.8023 0.869191 22.5 0 22.6221V23.0233H6.64062V22.6221C5.54544 22.4651 5.00654 21.6279 5.00654 20.0233V17.0407L6.43201 15.4709L9.87401 21.1221C10.691 22.4826 11.4559 23.0233 12.6554 23.0233H24.1983V22.7093C24.2157 22.7093 23.8854 22.6919 23.5029 22.6221ZM37.2709 20.7209V13.9535C37.2014 9.5407 35.3413 7.51744 31.0823 7.51744C29.7263 7.5 28.4052 7.95349 27.3274 8.7907C26.1974 9.64535 25.6585 10.6047 25.6585 11.7209C25.6585 12.8023 26.267 13.6221 27.2578 13.6221C28.3182 13.6221 29.0831 13.0116 29.0831 12.1744C29.0831 11.5465 28.6659 10.657 28.6659 10.064C28.6659 8.98256 29.483 8.0407 30.9084 8.0407C32.7337 8.0407 34.0375 9.40116 34.0375 12.4186V14.2326L32.5251 14.5988C31.7429 14.7558 31.0649 14.9128 30.5608 15.0523C30.0392 15.2093 29.3787 15.4186 28.5964 15.7151C27.0145 16.3256 26.18 16.9012 25.4499 17.9826C25.0849 18.5058 24.911 19.1337 24.911 19.7616C24.911 22.2733 26.6668 23.4244 29.1179 23.4244C31.0649 23.4244 33.1162 22.3953 34.0549 20.4593C34.0723 21.0698 34.2114 21.6628 34.4895 22.2209C35.5151 24.2965 38.9224 23.0756 38.9224 23.0756V22.6744C37.3926 22.9012 37.2709 21.1395 37.2709 20.7209ZM34.0375 18.6279C34.0375 19.6221 33.6725 20.4419 32.9423 21.0174C32.247 21.593 31.5169 21.8895 30.752 21.8895C29.2744 21.8895 28.3009 20.9302 28.3009 19.1337C28.3009 18.2965 28.7702 17.5116 29.1527 17.0581C29.4656 16.7442 29.8133 16.4826 30.2131 16.3081C30.7346 16.0291 30.978 15.8895 31.343 15.7326L32.7337 15.2267C33.4291 14.9477 33.8463 14.8081 34.0375 14.7209V18.6279ZM101 7.9186H89.2138V0H101L98.5315 3.9593L101 7.9186ZM77.0277 21.0872C75.5675 19.5872 74.7504 17.564 74.7852 15.4535C74.7678 14.4244 74.959 13.3953 75.3415 12.436C75.7239 11.4767 76.2976 10.6047 77.0277 9.85465C78.5227 8.28488 80.3306 7.5 82.4688 7.5C84.5549 7.5 86.3802 8.28488 87.8752 9.85465C88.6053 10.5872 89.1964 11.4593 89.5788 12.4186C89.9787 13.3779 90.1699 14.407 90.1525 15.4535C90.1699 16.5 89.9787 17.5291 89.5788 18.4884C89.179 19.4477 88.6053 20.3372 87.8752 21.0698C86.3802 22.6047 84.5723 23.407 82.4688 23.407C80.348 23.4244 78.5227 22.6395 77.0277 21.0872ZM85.1981 10.1163C84.6071 8.94767 83.8074 8.26744 82.8861 8.07558C81.0086 7.69186 79.3571 9.62791 78.7313 12.6802C78.4706 14.0581 78.401 15.4535 78.5401 16.8314C78.6792 18.2267 79.0616 19.5698 79.6874 20.8256C80.2959 21.9942 81.0781 22.6744 81.9995 22.8663C83.8769 23.25 85.5806 21.2442 86.2064 18.157C86.7279 15.5756 86.4671 12.436 85.1981 10.1163Z" fill="var(--fill-0, #707070)"/>
<path id="Vector_2" d="M59.105 20.0233V7.9186H48.4313V8.28488C49.8568 8.49419 50.5348 9.57558 49.8916 11.3023C46.5539 20.3372 46.7625 19.936 46.5539 20.6512C46.3453 19.9535 45.8585 18.2442 45.0762 16.0988C44.294 13.9535 43.7725 12.5407 43.5639 11.8953C42.7468 9.38372 43.025 8.4593 44.3461 8.30233V7.90116H37.4274V8.30233C38.453 8.51163 39.3744 9.69767 40.1219 11.8081L41.1823 14.564C42.347 17.5291 43.7203 21.6279 44.1723 23.0233H46.467C47.2145 20.8779 50.1697 12.2965 50.5695 11.4244C51.0041 10.4302 51.4909 9.68023 52.0298 9.15698C52.2905 8.87791 52.6034 8.65116 52.9685 8.51163C53.3162 8.37209 53.6986 8.28488 54.0811 8.30233C54.0811 8.30233 55.7499 8.30233 55.7499 9.90698V20.0407C55.7499 21.7326 54.9329 22.5174 54.0811 22.6395V23.0407H60.6869V22.6395C59.8351 22.5 59.105 21.7151 59.105 20.0233Z" fill="var(--fill-0, #707070)"/>
</g>
</svg>
