<svg preserveAspectRatio="none" width="100%" height="100%" overflow="visible" style="display: block;" viewBox="0 0 215.667 46.1667" fill="none" xmlns="http://www.w3.org/2000/svg">
<path id="Vector 291" d="M210.333 2.66667C210.333 4.13943 211.527 5.33333 213 5.33333C214.473 5.33333 215.667 4.13943 215.667 2.66667C215.667 1.19391 214.473 0 213 0C211.527 0 210.333 1.19391 210.333 2.66667ZM0 45.6667V46.1667C46.2916 46.1667 69.8447 35.383 96.6659 24.6309C123.44 13.8977 153.532 3.16686 213 3.16667V2.66667V2.16667C153.372 2.16687 123.151 12.936 96.2938 23.7027C69.4833 34.4505 46.0847 45.1667 0 45.1667V45.6667Z" fill="url(#paint0_linear_10_4687)"/>
<defs>
<linearGradient id="paint0_linear_10_4687" x1="0" y1="24.1667" x2="283.165" y2="24.1667" gradientUnits="userSpaceOnUse">
<stop stop-color="#D97757"/>
<stop offset="1" stop-color="#F9F5F2"/>
</linearGradient>
</defs>
</svg>
