<svg preserveAspectRatio="none" width="100%" height="100%" overflow="visible" style="display: block;" viewBox="0 0 215.667 51.1667" fill="none" xmlns="http://www.w3.org/2000/svg">
<path id="Vector 289" d="M210.333 2.66667C210.333 4.13943 211.527 5.33333 213 5.33333C214.473 5.33333 215.667 4.13943 215.667 2.66667C215.667 1.19391 214.473 0 213 0C211.527 0 210.333 1.19391 210.333 2.66667ZM0 50.6667V51.1667C46.3033 51.1667 69.864 39.125 96.6841 27.1232C123.456 15.143 153.541 3.16689 213 3.16667V2.66667V2.16667C153.362 2.16689 123.136 14.1908 96.2756 26.2104C69.464 38.2085 46.073 50.1667 0 50.1667V50.6667Z" fill="url(#paint0_linear_10_4668)"/>
<defs>
<linearGradient id="paint0_linear_10_4668" x1="0" y1="26.6667" x2="283.165" y2="26.6667" gradientUnits="userSpaceOnUse">
<stop stop-color="#D97757"/>
<stop offset="1" stop-color="#F9F5F2"/>
</linearGradient>
</defs>
</svg>
