<svg preserveAspectRatio="none" width="100%" height="100%" overflow="visible" style="display: block;" viewBox="0 0 353.667 6.16667" fill="none" xmlns="http://www.w3.org/2000/svg">
<path id="Vector 287" d="M348.333 2.66667C348.333 4.13943 349.527 5.33333 351 5.33333C352.473 5.33333 353.667 4.13943 353.667 2.66667C353.667 1.19391 352.473 0 351 0C349.527 0 348.333 1.19391 348.333 2.66667ZM0 5.66667V6.16667C76.1173 6.16667 114.806 5.41661 158.996 4.66661C203.184 3.91665 252.874 3.16668 351 3.16667V2.66667V2.16667C252.868 2.16668 203.171 2.91671 158.979 3.66675C114.79 4.41674 76.1085 5.16667 0 5.16667V5.66667Z" fill="url(#paint0_linear_10_4678)"/>
<defs>
<linearGradient id="paint0_linear_10_4678" x1="0" y1="4.16667" x2="466.624" y2="4.16667" gradientUnits="userSpaceOnUse">
<stop stop-color="#D97757"/>
<stop offset="1" stop-color="#F9F5F2"/>
</linearGradient>
</defs>
</svg>
