<svg preserveAspectRatio="none" width="100%" height="100%" overflow="visible" style="display: block;" viewBox="0 0 213.667 6.16667" fill="none" xmlns="http://www.w3.org/2000/svg">
<path id="Vector 287" d="M208.333 2.66667C208.333 4.13943 209.527 5.33333 211 5.33333C212.473 5.33333 213.667 4.13943 213.667 2.66667C213.667 1.19391 212.473 0 211 0C209.527 0 208.333 1.19391 208.333 2.66667ZM0 5.66667V6.16667C45.7618 6.16667 69.023 5.4165 95.588 4.66648C122.148 3.91659 152.016 3.16668 211 3.16667V2.66667V2.16667C152.005 2.16668 122.128 2.91677 95.5598 3.66688C68.9967 4.41685 45.7471 5.16667 0 5.16667V5.66667Z" fill="url(#paint0_linear_10_4660)"/>
<defs>
<linearGradient id="paint0_linear_10_4660" x1="0" y1="4.16667" x2="280.506" y2="4.16667" gradientUnits="userSpaceOnUse">
<stop stop-color="#D97757"/>
<stop offset="1" stop-color="#F9F5F2"/>
</linearGradient>
</defs>
</svg>
