<svg preserveAspectRatio="none" width="100%" height="100%" overflow="visible" style="display: block;" viewBox="0 0 333.667 99" fill="none" xmlns="http://www.w3.org/2000/svg">
<path id="Vector 290" d="M328.333 5.33339C328.333 6.80615 329.527 8.00005 331 8.00005C332.473 8.00005 333.667 6.80615 333.667 5.33339C333.667 3.86063 332.473 2.66672 331 2.66672C329.527 2.66672 328.333 3.86063 328.333 5.33339ZM0 98.5V99C71.9606 99 104.886 67.9755 144.674 40.9C164.564 27.365 186.18 14.8023 215.283 7.51689C244.388 0.230907 281.014 -1.78482 330.925 5.82767L331 5.33339L331.075 4.8391C281.066 -2.78849 244.302 -0.778428 215.04 6.54682C185.775 13.8727 164.048 26.5066 144.111 40.0733C104.247 67.2011 71.5914 98 0 98V98.5Z" fill="url(#paint0_linear_10_4662)"/>
<defs>
<linearGradient id="paint0_linear_10_4662" x1="0" y1="51.9172" x2="440.035" y2="51.9172" gradientUnits="userSpaceOnUse">
<stop stop-color="#D97757"/>
<stop offset="1" stop-color="#F9F5F2"/>
</linearGradient>
</defs>
</svg>
