<svg preserveAspectRatio="none" width="100%" height="100%" overflow="visible" style="display: block;" viewBox="0 0 44 44" fill="none" xmlns="http://www.w3.org/2000/svg">
<g id="Frame 28" filter="url(#filter0_i_1_2001)">
<g id="Union">
<path d="M28.4822 27.002C28.2864 26.4306 28.8451 25.8829 29.4333 26.0791L38.1882 28.9707C38.8238 29.1787 38.8712 30.0383 38.2654 30.3154L34.5798 32.001L32.8445 35.5801C32.5591 36.1687 31.6736 36.1225 31.4597 35.5049L28.4822 27.002ZM26.0095 21.5469C26.8237 21.974 27.674 22.2344 28.6072 22.2344H31.4714C32.1963 22.2344 32.874 22.038 33.5632 21.7783V26.2285L29.8132 24.9873C29.6053 24.9239 29.3972 24.8896 29.1833 24.8896C28.5653 24.8897 27.9765 25.1833 27.614 25.6738C27.2455 26.176 27.1512 26.794 27.3532 27.377L29.6228 33.8652C29.4565 33.8825 29.2842 33.8945 29.112 33.8945H14.9079C12.4237 33.8945 10.4559 31.9432 10.4558 29.542V21.7783C11.0917 22.0034 11.7101 22.2227 12.3698 22.2285L15.24 22.2393C16.2325 22.245 17.1486 22.0202 18.0163 21.5469C18.884 22.0316 19.7993 22.2393 20.7917 22.2393H23.1394C24.1615 22.2392 25.1122 22.049 26.0095 21.5469ZM30.7654 7.99902C32.8335 7.99916 34.4977 9.51794 34.7116 11.4805L35.3122 16.9355C35.5555 19.1403 33.5347 20.9471 31.3181 20.9473H28.6081C27.6394 20.9357 26.7711 20.5661 26.0163 19.9658C25.2318 20.6007 24.3284 20.9473 23.3181 20.9473H20.364C19.4785 20.8491 18.7058 20.5372 18.0105 19.96C17.2319 20.6006 16.3282 20.9414 15.3298 20.9414H12.7087C10.4922 20.9469 8.4722 19.1345 8.71555 16.9355L9.3093 11.4805C9.52324 9.52378 11.1993 7.99926 13.2614 7.99902H30.7654Z" fill="var(--fill-0, #2C2C33)"/>
<path d="M28.4822 27.002C28.2864 26.4306 28.8451 25.8829 29.4333 26.0791L38.1882 28.9707C38.8238 29.1787 38.8712 30.0383 38.2654 30.3154L34.5798 32.001L32.8445 35.5801C32.5591 36.1687 31.6736 36.1225 31.4597 35.5049L28.4822 27.002ZM26.0095 21.5469C26.8237 21.974 27.674 22.2344 28.6072 22.2344H31.4714C32.1963 22.2344 32.874 22.038 33.5632 21.7783V26.2285L29.8132 24.9873C29.6053 24.9239 29.3972 24.8896 29.1833 24.8896C28.5653 24.8897 27.9765 25.1833 27.614 25.6738C27.2455 26.176 27.1512 26.794 27.3532 27.377L29.6228 33.8652C29.4565 33.8825 29.2842 33.8945 29.112 33.8945H14.9079C12.4237 33.8945 10.4559 31.9432 10.4558 29.542V21.7783C11.0917 22.0034 11.7101 22.2227 12.3698 22.2285L15.24 22.2393C16.2325 22.245 17.1486 22.0202 18.0163 21.5469C18.884 22.0316 19.7993 22.2393 20.7917 22.2393H23.1394C24.1615 22.2392 25.1122 22.049 26.0095 21.5469ZM30.7654 7.99902C32.8335 7.99916 34.4977 9.51794 34.7116 11.4805L35.3122 16.9355C35.5555 19.1403 33.5347 20.9471 31.3181 20.9473H28.6081C27.6394 20.9357 26.7711 20.5661 26.0163 19.9658C25.2318 20.6007 24.3284 20.9473 23.3181 20.9473H20.364C19.4785 20.8491 18.7058 20.5372 18.0105 19.96C17.2319 20.6006 16.3282 20.9414 15.3298 20.9414H12.7087C10.4922 20.9469 8.4722 19.1345 8.71555 16.9355L9.3093 11.4805C9.52324 9.52378 11.1993 7.99926 13.2614 7.99902H30.7654Z" fill="url(#paint0_linear_1_2001)"/>
</g>
</g>
<defs>
<filter id="filter0_i_1_2001" x="-1" y="-1" width="45" height="45" filterUnits="userSpaceOnUse" color-interpolation-filters="sRGB">
<feFlood flood-opacity="0" result="BackgroundImageFix"/>
<feBlend mode="normal" in="SourceGraphic" in2="BackgroundImageFix" result="shape"/>
<feColorMatrix in="SourceAlpha" type="matrix" values="0 0 0 0 0 0 0 0 0 0 0 0 0 0 0 0 0 0 127 0" result="hardAlpha"/>
<feOffset dx="-1" dy="-1"/>
<feGaussianBlur stdDeviation="2"/>
<feComposite in2="hardAlpha" operator="arithmetic" k2="-1" k3="1"/>
<feColorMatrix type="matrix" values="0 0 0 0 0 0 0 0 0 0 0 0 0 0 0 0 0 0 0.2 0"/>
<feBlend mode="normal" in2="shape" result="effect1_innerShadow_1_2001"/>
</filter>
<linearGradient id="paint0_linear_1_2001" x1="5.14558" y1="-13.4586" x2="33.2727" y2="40.1057" gradientUnits="userSpaceOnUse">
<stop stop-color="white"/>
<stop offset="1" stop-color="white" stop-opacity="0"/>
</linearGradient>
</defs>
</svg>
