<svg preserveAspectRatio="none" width="100%" height="100%" overflow="visible" style="display: block;" viewBox="0 0 37.6119 25" fill="none" xmlns="http://www.w3.org/2000/svg">
<g id="Symbol">
<path id="Vector" d="M26.9937 0C23.9097 0 21.4988 2.3234 19.3164 5.27483C16.3174 1.45538 13.8093 0 10.8078 0C4.68856 0 0 7.96552 0 16.3966C0 21.6724 2.5518 25 6.826 25C9.9023 25 12.1148 23.5494 16.048 16.6724C16.048 16.6724 17.6875 13.7764 18.8155 11.7815C19.2107 12.4197 19.627 13.1075 20.0643 13.8448L21.9087 16.9483C25.5015 22.962 27.5033 25 31.1307 25C35.2946 25 37.6119 21.6269 37.6119 16.2414C37.6119 7.41379 32.8177 0 26.9937 0ZM13.0487 14.8103C9.85978 19.8103 8.75658 20.931 6.98113 20.931C5.15397 20.931 4.06802 19.3266 4.06802 16.4655C4.06802 10.3448 7.11904 4.08621 10.7561 4.08621C12.7257 4.08621 14.3716 5.22396 16.8927 8.83404C14.4988 12.5068 13.0487 14.8103 13.0487 14.8103ZM25.0841 14.1809L22.8789 10.5022C22.2821 9.53139 21.7086 8.63781 21.1583 7.82144C23.1458 4.75306 24.7853 3.22415 26.7352 3.22415C30.7859 3.22415 34.0266 9.18966 34.0266 16.5173C34.0266 19.3104 33.1119 20.931 31.2169 20.931C29.4005 20.931 28.5328 19.7312 25.0841 14.1809Z" fill="var(--fill-0, #838383)"/>
</g>
</svg>
