<svg preserveAspectRatio="none" width="100%" height="100%" overflow="visible" style="display: block;" viewBox="0 0 23 18" fill="none" xmlns="http://www.w3.org/2000/svg">
<path id="&#226;&#128;&#156;" d="M10.3166 13.8974C10.3166 14.9915 9.87062 15.9487 8.97875 16.7692C8.10403 17.5897 7.06637 18 5.86577 18C3.97912 18 2.52983 17.3761 1.5179 16.1282C0.505966 14.8803 0 13.1538 0 10.9487C0 8.89744 0.866145 6.82906 2.59843 4.74359C4.34787 2.65812 6.44892 1.07692 8.90157 0L10.0336 1.82051C8.09545 2.76068 6.57755 3.8547 5.47987 5.10256C4.38218 6.35043 3.74758 7.86325 3.57606 9.64103H5.01678C6.08016 9.64103 6.94631 9.76068 7.61521 10C8.28412 10.2393 8.82439 10.5726 9.23602 11C9.6305 11.4103 9.90492 11.8632 10.0593 12.359C10.2308 12.8547 10.3166 13.3675 10.3166 13.8974ZM23 13.8974C23 14.9915 22.5541 15.9487 21.6622 16.7692C20.7875 17.5897 19.7498 18 18.5492 18C16.6626 18 15.2133 17.3761 14.2013 16.1282C13.1894 14.8803 12.6834 13.1538 12.6834 10.9487C12.6834 8.89744 13.5496 6.82906 15.2819 4.74359C17.0313 2.65812 19.1324 1.07692 21.585 0L22.717 1.82051C20.7789 2.76068 19.261 3.8547 18.1633 5.10256C17.0656 6.35043 16.431 7.86325 16.2595 9.64103H17.7002C18.7636 9.64103 19.6298 9.76068 20.2987 10C20.9676 10.2393 21.5078 10.5726 21.9195 11C22.3139 11.4103 22.5884 11.8632 22.7427 12.359C22.9142 12.8547 23 13.3675 23 13.8974Z" fill="var(--fill-0, #D97757)"/>
</svg>
