<svg preserveAspectRatio="none" width="100%" height="100%" overflow="visible" style="display: block;" viewBox="0 0 42 48" fill="none" xmlns="http://www.w3.org/2000/svg">
<g id="Shopify" clip-path="url(#clip0_1_2036)">
<path id="Vector" d="M36.7113 9.42575C36.6784 9.18575 36.4686 9.05293 36.2952 9.0383C36.1221 9.02384 32.4593 8.75178 32.4593 8.75178C32.4593 8.75178 29.9154 6.2211 29.6362 5.94099C29.3568 5.66104 28.8112 5.74619 28.5994 5.80866C28.5683 5.81786 28.0436 5.98011 27.1758 6.24921C26.3261 3.7989 24.8264 1.54718 22.188 1.54718C22.1152 1.54718 22.0402 1.55014 21.9652 1.55441C21.2149 0.560055 20.2854 0.128055 19.4826 0.128055C13.3366 0.128055 10.4003 7.82696 9.4797 11.7393C7.09152 12.4808 5.39495 13.008 5.17825 13.0762C3.84521 13.4952 3.80305 13.5373 3.62801 14.796C3.49628 15.7489 0.00833412 42.7784 0.00833412 42.7784L27.1872 47.8811L41.9136 44.6888C41.9136 44.6888 36.744 9.66575 36.7115 9.42575H36.7113ZM25.6737 6.71474L23.3739 7.428C23.3747 7.26559 23.3756 7.10581 23.3756 6.93107C23.3756 5.40822 23.1646 4.18208 22.8262 3.21008C24.1856 3.38104 25.091 4.93101 25.6737 6.71474ZM21.1398 3.51206C21.5177 4.46104 21.7635 5.82296 21.7635 7.66077C21.7635 7.75479 21.7626 7.84077 21.7618 7.92773C20.2662 8.39195 18.641 8.89595 17.0122 9.40159C17.9268 5.86471 19.641 4.15644 21.1398 3.51206V3.51206ZM19.3138 1.77995C19.579 1.77995 19.8463 1.87019 20.102 2.04658C18.1323 2.97534 16.021 5.31452 15.1294 9.98581L11.3751 11.151C12.4194 7.58795 14.8991 1.77995 19.3136 1.77995H19.3138Z" fill="var(--fill-0, #9F9F9F)"/>
<path id="Vector_2" d="M36.2952 9.0383C36.1221 9.02384 32.4593 8.75178 32.4593 8.75178C32.4593 8.75178 29.9154 6.2211 29.6362 5.94099C29.5317 5.83677 29.3908 5.78334 29.2435 5.76033L27.1885 47.8808L41.9136 44.6888C41.9136 44.6888 36.7438 9.66575 36.7114 9.42575C36.6784 9.18575 36.4686 9.05293 36.2952 9.0383" fill="var(--fill-0, #838383)"/>
<path id="Vector_3" d="M22.188 17.1921L20.3722 22.6045C20.3722 22.6045 18.7813 21.7537 16.8311 21.7537C13.9721 21.7537 13.8282 23.5516 13.8282 24.0046C13.8282 26.4766 20.2588 27.4238 20.2588 33.214C20.2588 37.7696 17.3754 40.703 13.4875 40.703C8.82204 40.703 6.43615 37.7934 6.43615 37.7934L7.68536 33.6575C7.68536 33.6575 10.1379 35.7674 12.2073 35.7674C13.5595 35.7674 14.1096 34.7005 14.1096 33.921C14.1096 30.6965 8.83385 30.5527 8.83385 25.2541C8.83385 20.7945 12.0282 16.479 18.4762 16.479C20.9606 16.479 22.188 17.1921 22.188 17.1921" fill="var(--fill-0, white)"/>
</g>
<defs>
<clipPath id="clip0_1_2036">
<rect width="42" height="48" fill="white"/>
</clipPath>
</defs>
</svg>
