<svg width="232" height="32" viewBox="0 0 232 32" fill="none" xmlns="http://www.w3.org/2000/svg">
<path d="M19.7875 21.002C19.5916 20.4306 20.1494 19.883 20.7377 20.0791L29.4926 22.9707C30.1285 23.1785 30.176 24.0384 29.5698 24.3154L25.8852 26.001L24.1498 29.5801C23.8646 30.1689 22.979 30.1225 22.7651 29.5049L19.7875 21.002ZM17.3149 15.5469C18.129 15.9739 18.9786 16.2344 19.9116 16.2344H22.7768C23.5017 16.2343 24.1793 16.038 24.8686 15.7783V20.2285L21.1186 18.9873C20.9106 18.9238 20.7017 18.8896 20.4877 18.8896C19.8699 18.8898 19.2819 19.1835 18.9194 19.6738C18.5509 20.176 18.4556 20.794 18.6576 21.377L20.9282 27.8652C20.7617 27.8826 20.5888 27.8945 20.4164 27.8945H6.21233C3.72809 27.8945 1.76031 25.9432 1.76018 23.542V15.7783C2.39607 16.0034 3.01459 16.2227 3.67425 16.2285L6.54534 16.2393C7.53777 16.245 8.45309 16.0202 9.32073 15.5469C10.1884 16.0317 11.1036 16.2393 12.0961 16.2393H14.4438C15.466 16.2393 16.4174 16.0491 17.3149 15.5469ZM22.0698 1.99902C24.138 1.99902 25.8021 3.51786 26.016 5.48047L26.6166 10.9355C26.86 13.1404 24.8392 14.9473 22.6225 14.9473H19.9125C18.9438 14.9357 18.0755 14.5661 17.3207 13.9658C16.5363 14.6006 15.6327 14.9473 14.6225 14.9473H11.6694C10.7838 14.8491 10.0102 14.5372 9.31487 13.96C8.53645 14.6004 7.6334 14.9413 6.63518 14.9414H4.01409C1.79738 14.9472 -0.223397 13.1346 0.0199495 10.9355L0.614676 5.48047C0.828637 3.52363 2.50448 1.99902 4.56682 1.99902H22.0698Z" fill="#2C2C33"/>
<path d="M19.7875 21.002C19.5916 20.4306 20.1494 19.883 20.7377 20.0791L29.4926 22.9707C30.1285 23.1785 30.176 24.0384 29.5698 24.3154L25.8852 26.001L24.1498 29.5801C23.8646 30.1689 22.979 30.1225 22.7651 29.5049L19.7875 21.002ZM17.3149 15.5469C18.129 15.9739 18.9786 16.2344 19.9116 16.2344H22.7768C23.5017 16.2343 24.1793 16.038 24.8686 15.7783V20.2285L21.1186 18.9873C20.9106 18.9238 20.7017 18.8896 20.4877 18.8896C19.8699 18.8898 19.2819 19.1835 18.9194 19.6738C18.5509 20.176 18.4556 20.794 18.6576 21.377L20.9282 27.8652C20.7617 27.8826 20.5888 27.8945 20.4164 27.8945H6.21233C3.72809 27.8945 1.76031 25.9432 1.76018 23.542V15.7783C2.39607 16.0034 3.01459 16.2227 3.67425 16.2285L6.54534 16.2393C7.53777 16.245 8.45309 16.0202 9.32073 15.5469C10.1884 16.0317 11.1036 16.2393 12.0961 16.2393H14.4438C15.466 16.2393 16.4174 16.0491 17.3149 15.5469ZM22.0698 1.99902C24.138 1.99902 25.8021 3.51786 26.016 5.48047L26.6166 10.9355C26.86 13.1404 24.8392 14.9473 22.6225 14.9473H19.9125C18.9438 14.9357 18.0755 14.5661 17.3207 13.9658C16.5363 14.6006 15.6327 14.9473 14.6225 14.9473H11.6694C10.7838 14.8491 10.0102 14.5372 9.31487 13.96C8.53645 14.6004 7.6334 14.9413 6.63518 14.9414H4.01409C1.79738 14.9472 -0.223397 13.1346 0.0199495 10.9355L0.614676 5.48047C0.828637 3.52363 2.50448 1.99902 4.56682 1.99902H22.0698Z" fill="url(#paint0_linear_18_10844)"/>
<path d="M50.0967 26.168C45.2247 26.168 42.2847 23.48 42.1727 19.588H45.4207C45.5887 21.912 47.3807 23.452 50.0967 23.452C52.4767 23.452 54.1287 22.444 54.1287 20.568C54.1287 18.496 52.1127 18.02 49.2847 17.516C45.7567 16.9 42.6487 15.836 42.6487 11.972C42.6487 8.556 45.4487 6.232 49.6207 6.232C54.1007 6.232 56.9007 8.668 57.0407 12.28H53.8207C53.5687 10.292 52.0287 8.948 49.5927 8.948C47.3807 8.948 45.8687 9.872 45.8687 11.72C45.8687 13.736 47.8847 14.156 50.6847 14.66C54.2127 15.304 57.3487 16.368 57.3487 20.232C57.3487 23.732 54.4087 26.168 50.0967 26.168ZM64.0512 26C61.3072 26 60.1592 24.712 60.1592 22.108V14.324H57.6672V11.664H60.1592V7.66H63.1832V11.664H66.8792V14.324H63.1832V21.8C63.1832 22.92 63.6032 23.34 64.7512 23.34H66.8792V26H64.0512ZM74.7089 26.168C70.3409 26.168 67.4009 23.228 67.4009 18.832C67.4009 14.464 70.3409 11.496 74.7089 11.496C79.0769 11.496 82.0169 14.464 82.0169 18.832C82.0169 23.228 79.0769 26.168 74.7089 26.168ZM74.7089 23.592C77.2569 23.592 78.9369 21.604 78.9369 18.832C78.9369 16.06 77.2569 14.072 74.7089 14.072C72.1609 14.072 70.5089 16.06 70.5089 18.832C70.5089 21.604 72.1609 23.592 74.7089 23.592ZM83.6925 26V11.664H86.3525L86.6605 13.82C87.3885 12.644 88.5085 11.664 90.9165 11.664H91.6165V14.492H90.3005C87.5845 14.492 86.7445 16.592 86.7445 18.804V26H83.6925ZM99.0335 26.168C94.5255 26.168 91.6975 23.256 91.6975 18.86C91.6975 14.436 94.5255 11.496 98.7535 11.496C102.869 11.496 105.697 14.156 105.697 18.468V19.504H94.8615V19.672C94.8615 22.08 96.4855 23.704 98.8655 23.704C100.741 23.704 102.113 22.78 102.533 21.212H105.557C105.053 24.012 102.589 26.168 99.0335 26.168ZM94.9455 17.264H102.617C102.365 15.136 100.909 13.932 98.7815 13.932C96.8775 13.932 95.1975 15.164 94.9455 17.264ZM108.342 26V14.324H105.85V11.664H108.342V10.32C108.342 7.744 109.574 6.4 112.346 6.4H115.202V9.06H112.738C111.73 9.06 111.338 9.48 111.338 10.46V11.664H115.202V14.324H111.366V26H108.342ZM116.2 26V11.664H118.86L119.168 13.82C119.896 12.644 121.016 11.664 123.424 11.664H124.124V14.492H122.808C120.092 14.492 119.252 16.592 119.252 18.804V26H116.2ZM131.513 26.168C127.145 26.168 124.205 23.228 124.205 18.832C124.205 14.464 127.145 11.496 131.513 11.496C135.881 11.496 138.821 14.464 138.821 18.832C138.821 23.228 135.881 26.168 131.513 26.168ZM131.513 23.592C134.061 23.592 135.741 21.604 135.741 18.832C135.741 16.06 134.061 14.072 131.513 14.072C128.965 14.072 127.313 16.06 127.313 18.832C127.313 21.604 128.965 23.592 131.513 23.592ZM140.496 26V11.664H143.156L143.464 13.54C144.332 12.448 145.732 11.496 148.056 11.496C151.248 11.496 153.824 13.232 153.824 18.02V26H150.8V18.244C150.8 15.528 149.624 14.1 147.384 14.1C144.836 14.1 143.548 15.696 143.548 18.44V26H140.496ZM160.909 26C158.165 26 157.017 24.712 157.017 22.108V14.324H154.525V11.664H157.017V7.66H160.041V11.664H163.737V14.324H160.041V21.8C160.041 22.92 160.461 23.34 161.609 23.34H163.737V26H160.909ZM178.45 26.168C173.578 26.168 170.638 23.48 170.526 19.588H173.774C173.942 21.912 175.734 23.452 178.45 23.452C180.83 23.452 182.482 22.444 182.482 20.568C182.482 18.496 180.466 18.02 177.638 17.516C174.11 16.9 171.002 15.836 171.002 11.972C171.002 8.556 173.802 6.232 177.974 6.232C182.454 6.232 185.254 8.668 185.394 12.28H182.174C181.922 10.292 180.382 8.948 177.946 8.948C175.734 8.948 174.222 9.872 174.222 11.72C174.222 13.736 176.238 14.156 179.038 14.66C182.566 15.304 185.702 16.368 185.702 20.232C185.702 23.732 182.762 26.168 178.45 26.168ZM187.449 26V6.4H190.501V18.608L196.969 11.664H200.525L195.121 17.46L200.861 26H197.305L193.021 19.728L190.501 22.36V26H187.449ZM201.593 26V11.664H204.645V26H201.593ZM203.105 9.564C202.125 9.564 201.341 8.808 201.341 7.8C201.341 6.792 202.125 6.064 203.105 6.064C204.113 6.064 204.869 6.792 204.869 7.8C204.869 8.808 204.113 9.564 203.105 9.564ZM206.933 26V6.4H209.985V26H206.933ZM212.273 26V6.4H215.325V26H212.273ZM223.464 26.168C219.628 26.168 217.024 24.404 216.912 21.296H219.88C219.992 22.752 221.308 23.816 223.464 23.816C225.396 23.816 226.572 23.116 226.572 21.884C226.572 20.568 225.284 20.316 223.212 20.064C219.852 19.7 217.192 19.028 217.192 15.976C217.192 13.26 219.628 11.496 223.072 11.496C226.6 11.496 229.092 13.12 229.288 15.976H226.32C226.152 14.744 225.004 13.876 223.1 13.876C221.252 13.876 220.16 14.492 220.16 15.668C220.16 17.012 221.448 17.264 223.52 17.516C226.88 17.908 229.54 18.552 229.54 21.688C229.54 24.432 226.936 26.168 223.464 26.168Z" fill="#3A3A3A"/>
<defs>
<linearGradient id="paint0_linear_18_10844" x1="-3.55001" y1="-19.4586" x2="24.5771" y2="34.1057" gradientUnits="userSpaceOnUse">
<stop stop-color="white"/>
<stop offset="1" stop-color="white" stop-opacity="0"/>
</linearGradient>
</defs>
</svg>
